<svg width="19" height="19" viewBox="0 0 19 19" fill="none" xmlns="http://www.w3.org/2000/svg">
<path d="M3.5 15.5C3.0875 15.5 2.7345 15.3533 2.441 15.0597C2.1475 14.7662 2.0005 14.413 2 14V5C2 4.5875 2.147 4.2345 2.441 3.941C2.735 3.6475 3.088 3.5005 3.5 3.5H15.5C15.9125 3.5 16.2657 3.647 16.5597 3.941C16.8538 4.235 17.0005 4.588 17 5V14C17 14.4125 16.8533 14.7657 16.5597 15.0597C16.2662 15.3538 15.913 15.5005 15.5 15.5H3.5ZM9.5 10.25L15.5 6.5V5L9.5 8.75L3.5 5V6.5L9.5 10.25Z" fill="#1A1A1A"/>
</svg>
