<svg width="48" height="48" viewBox="0 0 48 48" fill="none" xmlns="http://www.w3.org/2000/svg">
<g clip-path="url(#clip0_237_1989)">
<path d="M25.0286 14C26.1536 14.003 26.7246 14.009 27.2176 14.023L27.4116 14.03C27.6356 14.038 27.8566 14.048 28.1236 14.06C29.1876 14.11 29.9136 14.278 30.5506 14.525C31.2106 14.779 31.7666 15.123 32.3226 15.678C32.8311 16.1779 33.2245 16.7826 33.4756 17.45C33.7226 18.087 33.8906 18.813 33.9406 19.878C33.9526 20.144 33.9626 20.365 33.9706 20.59L33.9766 20.784C33.9916 21.276 33.9976 21.847 33.9996 22.972L34.0006 23.718V25.028C34.003 25.7574 33.9954 26.4868 33.9776 27.216L33.9716 27.41C33.9636 27.635 33.9536 27.856 33.9416 28.122C33.8916 29.187 33.7216 29.912 33.4756 30.55C33.2253 31.2178 32.8317 31.8226 32.3226 32.322C31.8225 32.8303 31.2179 33.2238 30.5506 33.475C29.9136 33.722 29.1876 33.89 28.1236 33.94C27.8863 33.9512 27.649 33.9612 27.4116 33.97L27.2176 33.976C26.7246 33.99 26.1536 33.997 25.0286 33.999L24.2826 34H22.9736C22.2438 34.0025 21.5141 33.9949 20.7846 33.977L20.5906 33.971C20.3532 33.962 20.1158 33.9517 19.8786 33.94C18.8146 33.89 18.0886 33.722 17.4506 33.475C16.7832 33.2244 16.1788 32.8308 15.6796 32.322C15.1706 31.8223 14.7768 31.2176 14.5256 30.55C14.2786 29.913 14.1106 29.187 14.0606 28.122C14.0494 27.8847 14.0394 27.6474 14.0306 27.41L14.0256 27.216C14.0071 26.4868 13.9988 25.7574 14.0006 25.028V22.972C13.9978 22.2426 14.0051 21.5132 14.0226 20.784L14.0296 20.59C14.0376 20.365 14.0476 20.144 14.0596 19.878C14.1096 18.813 14.2776 18.088 14.5246 17.45C14.7757 16.7819 15.1703 16.177 15.6806 15.678C16.1797 15.1695 16.7837 14.776 17.4506 14.525C18.0886 14.278 18.8136 14.11 19.8786 14.06C20.1446 14.048 20.3666 14.038 20.5906 14.03L20.7846 14.024C21.5138 14.0062 22.2432 13.9986 22.9726 14.001L25.0286 14ZM24.0006 19C22.6745 19 21.4027 19.5268 20.465 20.4645C19.5274 21.4021 19.0006 22.6739 19.0006 24C19.0006 25.3261 19.5274 26.5979 20.465 27.5355C21.4027 28.4732 22.6745 29 24.0006 29C25.3267 29 26.5984 28.4732 27.5361 27.5355C28.4738 26.5979 29.0006 25.3261 29.0006 24C29.0006 22.6739 28.4738 21.4021 27.5361 20.4645C26.5984 19.5268 25.3267 19 24.0006 19ZM24.0006 21C24.3945 20.9999 24.7847 21.0775 25.1487 21.2282C25.5127 21.3789 25.8434 21.5998 26.122 21.8783C26.4007 22.1569 26.6217 22.4875 26.7725 22.8515C26.9233 23.2154 27.001 23.6055 27.0011 23.9995C27.0011 24.3935 26.9236 24.7836 26.7729 25.1476C26.6222 25.5116 26.4013 25.8423 26.1228 26.121C25.8442 26.3996 25.5135 26.6206 25.1496 26.7714C24.7856 26.9223 24.3955 26.9999 24.0016 27C23.2059 27 22.4429 26.6839 21.8803 26.1213C21.3176 25.5587 21.0016 24.7956 21.0016 24C21.0016 23.2044 21.3176 22.4413 21.8803 21.8787C22.4429 21.3161 23.2059 21 24.0016 21M29.2516 17.5C28.9201 17.5 28.6021 17.6317 28.3677 17.8661C28.1333 18.1005 28.0016 18.4185 28.0016 18.75C28.0016 19.0815 28.1333 19.3995 28.3677 19.6339C28.6021 19.8683 28.9201 20 29.2516 20C29.5831 20 29.901 19.8683 30.1355 19.6339C30.3699 19.3995 30.5016 19.0815 30.5016 18.75C30.5016 18.4185 30.3699 18.1005 30.1355 17.8661C29.901 17.6317 29.5831 17.5 29.2516 17.5Z" fill="#951113"/>
</g>
<defs>
<clipPath id="clip0_237_1989">
<rect width="24" height="24" fill="white" transform="translate(12 12)"/>
</clipPath>
</defs>
</svg>
