<svg width="19" height="19" viewBox="0 0 19 19" fill="none" xmlns="http://www.w3.org/2000/svg">
<path d="M10.2714 2C11.1152 2.00225 11.5434 2.00675 11.9132 2.01725L12.0587 2.0225C12.2267 2.0285 12.3924 2.036 12.5927 2.045C13.3907 2.0825 13.9352 2.2085 14.4129 2.39375C14.9079 2.58425 15.3249 2.84225 15.7419 3.2585C16.1233 3.63342 16.4184 4.08694 16.6067 4.5875C16.7919 5.06525 16.9179 5.60975 16.9554 6.4085C16.9644 6.608 16.9719 6.77375 16.9779 6.9425L16.9824 7.088C16.9937 7.457 16.9982 7.88525 16.9997 8.729L17.0004 9.2885V10.271C17.0023 10.8181 16.9965 11.3651 16.9832 11.912L16.9787 12.0575C16.9727 12.2262 16.9652 12.392 16.9562 12.5915C16.9187 13.3903 16.7912 13.934 16.6067 14.4125C16.4189 14.9133 16.1238 15.367 15.7419 15.7415C15.3669 16.1227 14.9134 16.4178 14.4129 16.6063C13.9352 16.7915 13.3907 16.9175 12.5927 16.955C12.4147 16.9634 12.2367 16.9709 12.0587 16.9775L11.9132 16.982C11.5434 16.9925 11.1152 16.9978 10.2714 16.9993L9.71193 17H8.73018C8.18288 17.0019 7.63558 16.9961 7.08843 16.9827L6.94293 16.9783C6.76489 16.9715 6.58689 16.9638 6.40893 16.955C5.61093 16.9175 5.06643 16.7915 4.58793 16.6063C4.08743 16.4183 3.6341 16.1231 3.25968 15.7415C2.87797 15.3667 2.5826 14.9132 2.39418 14.4125C2.20893 13.9347 2.08293 13.3903 2.04543 12.5915C2.03708 12.4135 2.02958 12.2355 2.02293 12.0575L2.01918 11.912C2.00536 11.3651 1.99911 10.8181 2.00043 10.271V8.729C1.99834 8.18195 2.00384 7.6349 2.01693 7.088L2.02218 6.9425C2.02818 6.77375 2.03568 6.608 2.04468 6.4085C2.08218 5.60975 2.20818 5.066 2.39343 4.5875C2.58177 4.08643 2.87772 3.63277 3.26043 3.2585C3.63475 2.87711 4.08779 2.58199 4.58793 2.39375C5.06643 2.2085 5.61018 2.0825 6.40893 2.045C6.60843 2.036 6.77493 2.0285 6.94293 2.0225L7.08843 2.018C7.63533 2.00467 8.18238 1.99892 8.72943 2.00075L10.2714 2ZM9.50043 5.75C8.50587 5.75 7.55204 6.14509 6.84878 6.84835C6.14552 7.55161 5.75043 8.50544 5.75043 9.5C5.75043 10.4946 6.14552 11.4484 6.84878 12.1517C7.55204 12.8549 8.50587 13.25 9.50043 13.25C10.495 13.25 11.4488 12.8549 12.1521 12.1517C12.8553 11.4484 13.2504 10.4946 13.2504 9.5C13.2504 8.50544 12.8553 7.55161 12.1521 6.84835C11.4488 6.14509 10.495 5.75 9.50043 5.75ZM9.50043 7.25C9.79591 7.24995 10.0885 7.3081 10.3615 7.42113C10.6345 7.53416 10.8826 7.69985 11.0915 7.90874C11.3005 8.11764 11.4663 8.36565 11.5794 8.63862C11.6925 8.91158 11.7508 9.20415 11.7508 9.49963C11.7509 9.7951 11.6927 10.0877 11.5797 10.3607C11.4667 10.6337 11.301 10.8818 11.0921 11.0907C10.8832 11.2997 10.6352 11.4655 10.3622 11.5786C10.0892 11.6917 9.79666 11.75 9.50118 11.75C8.90445 11.75 8.33215 11.5129 7.91019 11.091C7.48824 10.669 7.25118 10.0967 7.25118 9.5C7.25118 8.90326 7.48824 8.33097 7.91019 7.90901C8.33215 7.48705 8.90445 7.25 9.50118 7.25M13.4387 4.625C13.19 4.625 12.9516 4.72377 12.7758 4.89959C12.6 5.0754 12.5012 5.31386 12.5012 5.5625C12.5012 5.81114 12.6 6.0496 12.7758 6.22541C12.9516 6.40123 13.19 6.5 13.4387 6.5C13.6873 6.5 13.9258 6.40123 14.1016 6.22541C14.2774 6.0496 14.3762 5.81114 14.3762 5.5625C14.3762 5.31386 14.2774 5.0754 14.1016 4.89959C13.9258 4.72377 13.6873 4.625 13.4387 4.625Z" fill="#36121C"/>
</svg>
