<svg width="19" height="18" viewBox="0 0 19 18" fill="none" xmlns="http://www.w3.org/2000/svg">
<path d="M9.5 8.625C9.00272 8.625 8.52581 8.42746 8.17417 8.07583C7.82254 7.72419 7.625 7.24728 7.625 6.75C7.625 6.25272 7.82254 5.77581 8.17417 5.42417C8.52581 5.07254 9.00272 4.875 9.5 4.875C9.99728 4.875 10.4742 5.07254 10.8258 5.42417C11.1775 5.77581 11.375 6.25272 11.375 6.75C11.375 6.99623 11.3265 7.24005 11.2323 7.46753C11.138 7.69502 10.9999 7.90172 10.8258 8.07583C10.6517 8.24994 10.445 8.38805 10.2175 8.48227C9.99005 8.5765 9.74623 8.625 9.5 8.625ZM9.5 1.5C8.10761 1.5 6.77226 2.05312 5.78769 3.03769C4.80312 4.02226 4.25 5.35761 4.25 6.75C4.25 10.6875 9.5 16.5 9.5 16.5C9.5 16.5 14.75 10.6875 14.75 6.75C14.75 5.35761 14.1969 4.02226 13.2123 3.03769C12.2277 2.05312 10.8924 1.5 9.5 1.5Z" fill="#1A1A1A"/>
</svg>
