<svg width="19" height="19" viewBox="0 0 19 19" fill="none" xmlns="http://www.w3.org/2000/svg">
<path d="M9.50001 2C13.6423 2 17 5.35775 17 9.5C17 13.6423 13.6423 17 9.50001 17C8.17459 17.0021 6.8725 16.6514 5.72751 15.9838L2.00301 17L3.01701 13.274C2.34883 12.1287 1.9978 10.826 2.00001 9.5C2.00001 5.35775 5.35776 2 9.50001 2ZM6.94401 5.975L6.79401 5.981C6.6969 5.98691 6.602 6.01243 6.51501 6.056C6.43365 6.10207 6.35938 6.15967 6.29451 6.227C6.20451 6.31175 6.15351 6.38525 6.09876 6.4565C5.82135 6.81718 5.67199 7.25998 5.67426 7.715C5.67576 8.0825 5.77176 8.44025 5.92176 8.77475C6.22851 9.45125 6.73326 10.1675 7.39926 10.8312C7.55976 10.991 7.71726 11.1515 7.88676 11.3007C8.7143 12.0293 9.70045 12.5548 10.7668 12.8353L11.1928 12.9005C11.3315 12.908 11.4703 12.8975 11.6098 12.8907C11.8282 12.8795 12.0415 12.8203 12.2345 12.7175C12.3327 12.6669 12.4286 12.6119 12.5218 12.5525C12.5218 12.5525 12.554 12.5315 12.6155 12.485C12.7168 12.41 12.779 12.3568 12.863 12.269C12.9253 12.2045 12.9793 12.1287 13.0205 12.0425C13.079 11.9202 13.1375 11.687 13.1615 11.4928C13.1795 11.3442 13.1743 11.2633 13.172 11.213C13.169 11.1328 13.1023 11.0495 13.0295 11.0142L12.593 10.8185C12.593 10.8185 11.9405 10.5343 11.5415 10.3527C11.4998 10.3345 11.455 10.3241 11.4095 10.322C11.3582 10.3167 11.3063 10.3225 11.2574 10.3389C11.2085 10.3554 11.1637 10.3821 11.126 10.4172C11.1223 10.4157 11.072 10.4585 10.5298 11.1155C10.4986 11.1573 10.4558 11.1889 10.4066 11.2063C10.3575 11.2237 10.3042 11.226 10.2538 11.213C10.2049 11.1999 10.157 11.1834 10.1105 11.1635C10.0175 11.1245 9.98526 11.1095 9.92151 11.0825C9.49106 10.8947 9.09253 10.6409 8.74026 10.3302C8.64576 10.2478 8.55801 10.1578 8.46801 10.0707C8.17295 9.78817 7.9158 9.4685 7.70301 9.11975L7.65876 9.0485C7.62698 9.00062 7.60128 8.94898 7.58226 8.89475C7.55376 8.7845 7.62801 8.696 7.62801 8.696C7.62801 8.696 7.81026 8.4965 7.89501 8.3885C7.97751 8.2835 8.04726 8.1815 8.09226 8.10875C8.18076 7.96625 8.20851 7.82 8.16201 7.70675C7.95201 7.19375 7.73451 6.683 7.51101 6.176C7.46676 6.0755 7.33551 6.0035 7.21626 5.98925C7.17576 5.98475 7.13526 5.98025 7.09476 5.97725C6.99404 5.97225 6.89311 5.97325 6.79251 5.98025L6.94401 5.975Z" fill="#1A1A1A"/>
</svg>
